<svg xmlns="http://www.w3.org/2000/svg" viewBox="0 0 1600 900" role="img" aria-labelledby="title desc">
  <title id="title">New York skyline at night</title>
  <desc id="desc">Stylized skyline illustration for the New York event hub.</desc>
  <defs>
    <linearGradient id="sky" x1="0%" y1="0%" x2="0%" y2="100%">
      <stop offset="0%" stop-color="#08111f"/>
      <stop offset="100%" stop-color="#15325b"/>
    </linearGradient>
  </defs>
  <rect width="1600" height="900" fill="url(#sky)"/>
  <circle cx="1230" cy="182" r="84" fill="#f8fafc" fill-opacity="0.9"/>
  <rect x="0" y="650" width="1600" height="250" fill="#09111d"/>
  <g fill="#cbd5e1">
    <rect x="110" y="430" width="116" height="220"/>
    <rect x="252" y="330" width="138" height="320"/>
    <rect x="430" y="268" width="164" height="382"/>
    <rect x="642" y="196" width="124" height="454"/>
    <rect x="798" y="368" width="116" height="282"/>
    <rect x="952" y="308" width="146" height="342"/>
    <rect x="1138" y="388" width="126" height="262"/>
    <rect x="1298" y="286" width="188" height="364"/>
  </g>
  <g fill="#f8fafc">
    <rect x="680" y="106" width="48" height="90"/>
    <rect x="698" y="58" width="12" height="58"/>
  </g>
  <g fill="#fde68a" fill-opacity="0.85">
    <rect x="141" y="467" width="15" height="15"/>
    <rect x="173" y="524" width="15" height="15"/>
    <rect x="286" y="374" width="16" height="16"/>
    <rect x="328" y="427" width="16" height="16"/>
    <rect x="477" y="326" width="18" height="18"/>
    <rect x="525" y="390" width="18" height="18"/>
    <rect x="684" y="258" width="16" height="16"/>
    <rect x="716" y="322" width="16" height="16"/>
    <rect x="987" y="356" width="16" height="16"/>
    <rect x="1040" y="430" width="16" height="16"/>
    <rect x="1340" y="332" width="18" height="18"/>
    <rect x="1394" y="410" width="18" height="18"/>
  </g>
</svg>
